ply
format ascii 1.0
comment Created by Blender 2.71 (sub 0) - www.blender.org, source file: ''
element vertex 8
property float x
property float y
property float z
element face 12
property list uchar uint vertex_indices
end_header
0.669812 0.513813 0.330188
0.669812 0.486187 0.330188
0.330188 0.486187 0.330188
0.330188 0.513813 0.669812
0.330188 0.486187 0.669812
0.669812 0.486187 0.669812
0.669812 0.513813 0.669812
0.330188 0.513813 0.330188
3 0 1 2
3 3 4 5
3 6 5 1
3 5 4 2
3 2 4 3
3 6 0 7
3 7 0 2
3 6 3 5
3 0 6 1
3 1 5 2
3 7 2 3
3 3 6 7
