ply
format ascii 1.0
comment Created by Blender 2.71 (sub 0) - www.blender.org, source file: ''
element vertex 100
property float x
property float y
property float z
element face 81
property list uchar uint vertex_indices
end_header
0.125839 0.051312 0.130650
0.201721 0.051312 0.130650
0.201721 0.127193 0.130650
0.125839 0.127193 0.130650
0.277602 0.051312 0.130650
0.277602 0.127193 0.130650
0.353483 0.051312 0.130650
0.353483 0.127193 0.130650
0.429365 0.051312 0.130650
0.429365 0.127193 0.130650
0.505246 0.051312 0.130650
0.505246 0.127193 0.130650
0.581127 0.051312 0.130650
0.581127 0.127193 0.130650
0.657009 0.051312 0.130650
0.657009 0.127193 0.130650
0.732890 0.051312 0.130650
0.732890 0.127193 0.130650
0.808771 0.051312 0.130650
0.808771 0.127193 0.130650
0.201721 0.203075 0.130650
0.125839 0.203075 0.130650
0.277602 0.203075 0.130650
0.353483 0.203075 0.130650
0.429365 0.203075 0.130650
0.505246 0.203075 0.130650
0.581127 0.203075 0.130650
0.657009 0.203075 0.130650
0.732890 0.203075 0.130650
0.808771 0.203075 0.130650
0.201721 0.278956 0.130650
0.125839 0.278956 0.130650
0.277602 0.278956 0.130650
0.353483 0.278956 0.130650
0.429365 0.278956 0.130650
0.505246 0.278956 0.130650
0.581127 0.278956 0.130650
0.657009 0.278956 0.130650
0.732890 0.278956 0.130650
0.808771 0.278956 0.130650
0.201721 0.354837 0.130650
0.125839 0.354837 0.130650
0.277602 0.354837 0.130650
0.353483 0.354837 0.130650
0.429365 0.354837 0.130650
0.505246 0.354837 0.130650
0.581127 0.354837 0.130650
0.657009 0.354837 0.130650
0.732890 0.354837 0.130650
0.808771 0.354837 0.130650
0.201721 0.430719 0.130650
0.125839 0.430719 0.130650
0.277602 0.430719 0.130650
0.353483 0.430719 0.130650
0.429365 0.430719 0.130650
0.505246 0.430719 0.130650
0.581127 0.430719 0.130650
0.657009 0.430719 0.130650
0.732890 0.430719 0.130650
0.808771 0.430719 0.130650
0.201721 0.506600 0.130650
0.125839 0.506600 0.130650
0.277602 0.506600 0.130650
0.353483 0.506600 0.130650
0.429365 0.506600 0.130650
0.505246 0.506600 0.130650
0.581127 0.506600 0.130650
0.657009 0.506600 0.130650
0.732890 0.506600 0.130650
0.808771 0.506600 0.130650
0.201721 0.582481 0.130650
0.125839 0.582481 0.130650
0.277602 0.582481 0.130650
0.353483 0.582481 0.130650
0.429365 0.582481 0.130650
0.505246 0.582481 0.130650
0.581127 0.582481 0.130650
0.657009 0.582481 0.130650
0.732890 0.582481 0.130650
0.808771 0.582481 0.130650
0.201721 0.658363 0.130650
0.125839 0.658363 0.130650
0.277602 0.658363 0.130650
0.353483 0.658363 0.130650
0.429365 0.658363 0.130650
0.505246 0.658363 0.130650
0.581127 0.658363 0.130650
0.657009 0.658363 0.130650
0.732890 0.658363 0.130650
0.808771 0.658363 0.130650
0.201721 0.734244 0.130650
0.125839 0.734244 0.130650
0.277602 0.734244 0.130650
0.353483 0.734244 0.130650
0.429365 0.734244 0.130650
0.505246 0.734244 0.130650
0.581127 0.734244 0.130650
0.657009 0.734244 0.130650
0.732890 0.734244 0.130650
0.808771 0.734244 0.130650
4 0 1 2 3
4 1 4 5 2
4 4 6 7 5
4 6 8 9 7
4 8 10 11 9
4 10 12 13 11
4 12 14 15 13
4 14 16 17 15
4 16 18 19 17
4 3 2 20 21
4 2 5 22 20
4 5 7 23 22
4 7 9 24 23
4 9 11 25 24
4 11 13 26 25
4 13 15 27 26
4 15 17 28 27
4 17 19 29 28
4 21 20 30 31
4 20 22 32 30
4 22 23 33 32
4 23 24 34 33
4 24 25 35 34
4 25 26 36 35
4 26 27 37 36
4 27 28 38 37
4 28 29 39 38
4 31 30 40 41
4 30 32 42 40
4 32 33 43 42
4 33 34 44 43
4 34 35 45 44
4 35 36 46 45
4 36 37 47 46
4 37 38 48 47
4 38 39 49 48
4 41 40 50 51
4 40 42 52 50
4 42 43 53 52
4 43 44 54 53
4 44 45 55 54
4 45 46 56 55
4 46 47 57 56
4 47 48 58 57
4 48 49 59 58
4 51 50 60 61
4 50 52 62 60
4 52 53 63 62
4 53 54 64 63
4 54 55 65 64
4 55 56 66 65
4 56 57 67 66
4 57 58 68 67
4 58 59 69 68
4 61 60 70 71
4 60 62 72 70
4 62 63 73 72
4 63 64 74 73
4 64 65 75 74
4 65 66 76 75
4 66 67 77 76
4 67 68 78 77
4 68 69 79 78
4 71 70 80 81
4 70 72 82 80
4 72 73 83 82
4 73 74 84 83
4 74 75 85 84
4 75 76 86 85
4 76 77 87 86
4 77 78 88 87
4 78 79 89 88
4 81 80 90 91
4 80 82 92 90
4 82 83 93 92
4 83 84 94 93
4 84 85 95 94
4 85 86 96 95
4 86 87 97 96
4 87 88 98 97
4 88 89 99 98
