ply
format ascii 1.0
comment Created by Blender 2.71 (sub 0) - www.blender.org, source file: ''
element vertex 26
property float x
property float y
property float z
element face 48
property list uchar uint vertex_indices
end_header
0.500000 0.500000 0.330188
0.500000 0.510360 0.372641
0.594340 0.507674 0.405660
0.627359 0.500000 0.372641
0.594340 0.492326 0.405660
0.500000 0.489640 0.372641
0.405660 0.492326 0.405660
0.372641 0.500000 0.372641
0.405660 0.507674 0.405660
0.500000 0.500000 0.669812
0.627359 0.500000 0.627359
0.594340 0.507674 0.594340
0.500000 0.510360 0.627359
0.405660 0.507674 0.594340
0.372641 0.500000 0.627359
0.405660 0.492326 0.594340
0.500000 0.489640 0.627359
0.594340 0.492326 0.594340
0.669812 0.500000 0.500000
0.627359 0.510360 0.500000
0.627359 0.489640 0.500000
0.500000 0.486187 0.500000
0.372641 0.489640 0.500000
0.330188 0.500000 0.500000
0.372641 0.510360 0.500000
0.500000 0.513813 0.500000
3 0 1 2
3 0 3 4
3 0 5 6
3 0 7 8
3 9 10 11
3 9 12 13
3 9 14 15
3 9 16 17
3 18 3 2
3 18 19 11
3 18 10 17
3 18 20 4
3 21 5 4
3 21 20 17
3 21 16 15
3 21 22 6
3 23 7 6
3 23 22 15
3 23 14 13
3 23 24 8
3 25 12 11
3 25 19 2
3 25 1 8
3 25 24 13
3 3 0 2
3 5 0 4
3 7 0 6
3 1 0 8
3 12 9 11
3 14 9 13
3 16 9 15
3 10 9 17
3 19 18 2
3 10 18 11
3 20 18 17
3 3 18 4
3 20 21 4
3 16 21 17
3 22 21 15
3 5 21 6
3 22 23 6
3 14 23 15
3 24 23 13
3 7 23 8
3 19 25 11
3 1 25 2
3 24 25 8
3 12 25 13
